<svg xmlns="http://www.w3.org/2000/svg" width="400" height="200" viewBox="0 0 400 200">

  <text x="120" y="75" text-anchor="middle" font-family="Jua" font-size="50" font-weight="bold" fill="#000000">
    Table
  </text>
  <g transform="translate(173, 65)">
    <path d="M10.143 2.426l2.97 1.596c.875.472 1.527 1.267 1.856 2.223l2.582 8.344c.32 1.03-.078 2.133-.966 2.805-.887.67-2.127.692-3.032.061l-1.99-1.075a5.175 5.175 0 01-2.2-.972L1.865 11.284a4.215 4.215 0 01-.638-5.62l3.39-6.238A4.782 4.782 0 019.31.31l.833 2.116zm-2.87-1.05l-.833-2.116A4.782 4.782 0 00.638 5.42L-2.752 11.66a4.215 4.215 0 00.638 5.62l3.39 6.238a5.17 5.17 0 002.2.972l1.99 1.075c.904.388 2.145.409 3.032-.061.888-.672 1.286-1.775.966-2.805L14.97 6.245c.33-.956.981-1.751 1.856-2.223l2.97-1.596-3.39-6.238a4.215 4.215 0 00-5.598-1.522L7.62 4.134a4.79 4.79 0 00-2.347.37z" fill="#00BFA5" />

  </g>
  <text x="260" y="75" text-anchor="middle" font-family="Jua" font-size="50" font-weight="bold" fill="#000000">
    Book
  </text>
  <text x="180" y="130" text-anchor="middle" font-family="Jua" font-size="20" font-weight="normal" fill="#00BFA5">Make a Difference of Reservation</text>
</svg>